<?xml version="1.0" encoding="utf-8"?>
<svg viewBox="1443.179 287.152 310.891 67.976" width="310.891" height="67.976" xmlns="http://www.w3.org/2000/svg">
  <defs>
    <style type="text/css">
	.st0{fill:#8D41F1;}
	.st1{fill:#FFFFFF;}
	.st2{fill:#26DCC2;}
	.st3{fill:#535353;}
	.st4{fill:#F3B900;}
	.st5{fill:#0847FD;}
	.st6{opacity:0.45;}
	.st7{clip-path:url(#SVGID_00000131349496370738053690000017657704436648845234_);}
	.st8{clip-path:url(#SVGID_00000183941691822175144330000010508703845771090338_);}
	.st9{filter:url(#Adobe_OpacityMaskFilter);}
	.st10{fill:url(#SVGID_00000160169768430641546560000011017630667665643655_);}
	.st11{mask:url(#SVGID_00000145767313976523942940000012358161721397309087_);fill-rule:evenodd;clip-rule:evenodd;fill:#26DCC2;}
	.st12{filter:url(#Adobe_OpacityMaskFilter_00000032638510943997913260000009857468030609556119_);}
	.st13{fill:url(#SVGID_00000076575586538048235530000012589645655093077686_);}
	.st14{mask:url(#SVGID_00000033366262052006632170000006758845293637987518_);fill-rule:evenodd;clip-rule:evenodd;fill:#3D74FF;}
	.st15{filter:url(#Adobe_OpacityMaskFilter_00000163071525920600901750000006746468128981477264_);}
	.st16{fill:url(#SVGID_00000145049424544933837060000016401735014907835010_);}
	.st17{mask:url(#SVGID_00000006698905384359439310000014034467572916980637_);fill-rule:evenodd;clip-rule:evenodd;fill:#0022B9;}
	.st18{filter:url(#Adobe_OpacityMaskFilter_00000015345083784249448840000004561062052022502846_);}
	.st19{fill:url(#SVGID_00000017489190215490198080000006990791927802333593_);}
	.st20{mask:url(#SVGID_00000070089116489269767790000011409541003096397208_);fill-rule:evenodd;clip-rule:evenodd;fill:#3D74FF;}
	.st21{filter:url(#Adobe_OpacityMaskFilter_00000170238428599699308780000002835450138895299254_);}
	.st22{fill:url(#SVGID_00000127760244033202928680000003183005645256001926_);}
	.st23{mask:url(#SVGID_00000140735394502710147380000001093568043691211936_);fill-rule:evenodd;clip-rule:evenodd;fill:#002CF2;}
	.st24{opacity:0.25;}
	.st25{fill:#00D3AE;}
	.st26{fill:#975CFA;}
	.st27{fill:#FACC00;}
	.st28{fill:#F8D441;}
	.st29{fill:#002CF2;}
	.st30{opacity:0.25;fill:#0847FD;}
	.st31{opacity:0.85;fill:url(#SVGID_00000128447147874659533300000013383337614320756622_);}
	.st32{fill-rule:evenodd;clip-rule:evenodd;fill:#FFFFFF;}
	.st33{fill:#FDD703;}
	.st34{fill:#61EACF;}
	.st35{fill:#3D74FF;}
	.st36{opacity:0.85;}
	.st37{fill:none;stroke:#26DCC2;stroke-miterlimit:10;}
	.st38{fill:#FADB77;}
	.st39{fill:#668BFF;}
	.st40{fill:#7E52DD;}
	.st41{opacity:0.25;fill:#FFFFFF;}
	.st42{fill:#00BF94;}
	.st43{fill:#8AEAD2;}
	.st44{fill:#1454F1;}
	.st45{fill:none;stroke:#FFFFFF;stroke-miterlimit:10;stroke-dasharray:3.0047,3.0047;}
	.st46{fill:none;stroke:#FFFFFF;stroke-miterlimit:10;stroke-dasharray:3;}
	.st47{fill:none;stroke:#668BFF;stroke-miterlimit:10;stroke-dasharray:3;}
	.st48{fill:#26260A;}
	.st49{fill:#F6A18A;}
	.st50{fill:#FF737D;}
	.st51{fill:#C7C7C7;}
	.st52{fill-rule:evenodd;clip-rule:evenodd;fill:#0847FD;}
	.st53{clip-path:url(#SVGID_00000052784939231379146460000014550204297514432389_);fill:#0847FD;}
	.st54{opacity:0.45;clip-path:url(#SVGID_00000052784939231379146460000014550204297514432389_);}
	.st55{clip-path:url(#SVGID_00000126314125059783649550000016003051837306827942_);}
	.st56{clip-path:url(#SVGID_00000163031189977217648940000011878270395033076357_);}
	.st57{filter:url(#Adobe_OpacityMaskFilter_00000149371584487952074900000007003945079495060876_);}
	.st58{fill:url(#SVGID_00000089567246508396067830000013134699783623549072_);}
	.st59{mask:url(#SVGID_00000072242812916128450380000005186056321028945062_);fill-rule:evenodd;clip-rule:evenodd;fill:#26DCC2;}
	.st60{filter:url(#Adobe_OpacityMaskFilter_00000013889028748148217680000003783022121263733422_);}
	.st61{fill:url(#SVGID_00000074422498415657190300000005935824761285187212_);}
	.st62{mask:url(#SVGID_00000129896263763048081390000001993224511139509689_);fill-rule:evenodd;clip-rule:evenodd;fill:#3D74FF;}
	.st63{filter:url(#Adobe_OpacityMaskFilter_00000029745424986920090930000005670016069236208783_);}
	.st64{fill:url(#SVGID_00000088818455543495074350000003359872248351032971_);}
	.st65{mask:url(#SVGID_00000173151555732843456800000013687579426413302166_);fill-rule:evenodd;clip-rule:evenodd;fill:#0022B9;}
	.st66{filter:url(#Adobe_OpacityMaskFilter_00000167396979153258815630000012041268565171721120_);}
	.st67{fill:url(#SVGID_00000052786266163332606600000014686303342093276291_);}
	.st68{mask:url(#SVGID_00000174568040765289995940000017820545084347215799_);fill-rule:evenodd;clip-rule:evenodd;fill:#3D74FF;}
	.st69{filter:url(#Adobe_OpacityMaskFilter_00000139290971905510451600000005608902197778706319_);}
	.st70{fill:url(#SVGID_00000023246613408853454750000003825401540045813658_);}
	.st71{mask:url(#SVGID_00000129179505343346541230000012742052907431777447_);fill-rule:evenodd;clip-rule:evenodd;fill:#002CF2;}
	.st72{opacity:0.25;clip-path:url(#SVGID_00000052784939231379146460000014550204297514432389_);}
	.st73{opacity:0.25;clip-path:url(#SVGID_00000052784939231379146460000014550204297514432389_);fill:#0847FD;}
	.st74{clip-path:url(#SVGID_00000052784939231379146460000014550204297514432389_);}
	.st75{font-family:'Mont-Regular';}
	.st76{font-size:68.9117px;}
	.st77{letter-spacing:-3;}
	.st78{font-family:'Mont-Heavy';}
	.st79{font-family:'Mont-Bold';}
	.st80{font-size:16.9504px;}
	.st81{font-size:32.6027px;}
	.st82{opacity:0.85;clip-path:url(#SVGID_00000052784939231379146460000014550204297514432389_);}
	.st83{font-family:'Mont-Book';}
	.st84{font-size:12px;}
	.st85{clip-path:url(#SVGID_00000052784939231379146460000014550204297514432389_);fill:#FFFFFF;}
	.st86{clip-path:url(#SVGID_00000052784939231379146460000014550204297514432389_);fill:#975CFA;}
	.st87{clip-path:url(#SVGID_00000052784939231379146460000014550204297514432389_);fill:#F8D441;}
	.st88{font-size:17.4792px;}
	.st89{fill:none;}
	.st90{font-size:20px;}
	.st91{fill:#2F48EE;}
	.st92{letter-spacing:1;}
	.st93{font-size:14px;}
	.st94{fill:none;stroke:#0847FD;stroke-miterlimit:10;}
	.st95{clip-path:url(#SVGID_00000087370936569732169570000010705876368435605892_);}
	
		.st96{clip-path:url(#SVGID_00000170245089495174020070000010801103414622705087_);fill:url(#SVGID_00000165950831877767350440000018066043650346395827_);}
	
		.st97{clip-path:url(#SVGID_00000170245089495174020070000010801103414622705087_);fill:url(#SVGID_00000001656080057985288950000005769103388251315383_);}
	
		.st98{clip-path:url(#SVGID_00000170245089495174020070000010801103414622705087_);fill:url(#SVGID_00000165917380425608895320000005658058520317787818_);}
	
		.st99{clip-path:url(#SVGID_00000170245089495174020070000010801103414622705087_);fill:url(#SVGID_00000023249136701361870570000007666922128178347660_);}
	
		.st100{clip-path:url(#SVGID_00000170245089495174020070000010801103414622705087_);fill:url(#SVGID_00000181800675353792055900000016936559644745346200_);}
	
		.st101{clip-path:url(#SVGID_00000170245089495174020070000010801103414622705087_);fill:url(#SVGID_00000083806217871277440530000009385188220726784162_);}
	
		.st102{opacity:0.5;clip-path:url(#SVGID_00000087370936569732169570000010705876368435605892_);fill:url(#SVGID_00000048485419471928875540000016736040268763163282_);}
	
		.st103{clip-path:url(#SVGID_00000087370936569732169570000010705876368435605892_);fill:url(#SVGID_00000037681591865895173280000013376112701785502891_);}
	
		.st104{clip-path:url(#SVGID_00000087370936569732169570000010705876368435605892_);fill:none;stroke:#535353;stroke-miterlimit:10;}
	.st105{opacity:0.35;fill:#3D74FF;}
	.st106{fill:url(#SVGID_00000075124225725102689310000016245138049029026982_);}
	
		.st107{clip-path:url(#SVGID_00000087370936569732169570000010705876368435605892_);fill:none;stroke:#00BF94;stroke-width:3;stroke-miterlimit:10;}
	.st108{clip-path:url(#SVGID_00000087370936569732169570000010705876368435605892_);fill:#00BF94;}
	.st109{clip-path:url(#SVGID_00000087370936569732169570000010705876368435605892_);fill:#0847FD;}
	
		.st110{clip-path:url(#SVGID_00000087370936569732169570000010705876368435605892_);fill:none;stroke:#8D41F1;stroke-width:3;stroke-miterlimit:10;}
	.st111{clip-path:url(#SVGID_00000087370936569732169570000010705876368435605892_);fill:#975CFA;}
	.st112{clip-path:url(#SVGID_00000087370936569732169570000010705876368435605892_);fill:#FFFFFF;}
	.st113{clip-path:url(#SVGID_00000087370936569732169570000010705876368435605892_);fill:#8D41F1;}
	
		.st114{clip-path:url(#SVGID_00000087370936569732169570000010705876368435605892_);fill:none;stroke:#F3B900;stroke-width:3;stroke-miterlimit:10;}
	.st115{clip-path:url(#SVGID_00000087370936569732169570000010705876368435605892_);fill:#3D74FF;}
	.st116{clip-path:url(#SVGID_00000087370936569732169570000010705876368435605892_);fill:#F3B900;}
	
		.st117{clip-path:url(#SVGID_00000087370936569732169570000010705876368435605892_);fill:none;stroke:#0847FD;stroke-width:3;stroke-miterlimit:10;}
	.st118{clip-path:url(#SVGID_00000087370936569732169570000010705876368435605892_);fill:#002CF2;}
</style>
  </defs>
  <g>
    <g style="">
      <g>
        <path class="st52" d="M1508.37,307.75c-0.79-1.85-1.73-3.58-2.8-5.21c-10.94,7.32-25.3,16.12-43.53,25.13 c19.07-7.07,35.32-11.5,48.14-14.43C1509.76,311.39,1509.15,309.55,1508.37,307.75z M1504.96,340.44 c-3.77,2.72-7.88,5.07-12.31,6.98c-8.96,3.87-18.48,5.59-27.68,5.37h-0.09c0.26,0.09,0.51,0.2,0.78,0.28 c0.23,0.09,0.47,0.19,0.7,0.27c1.93,0.66,3.93,1.13,5.95,1.42c0.37,0.06,0.75,0.11,1.11,0.14c0.08,0.03,0.14,0.03,0.22,0.03 c0.37,0.03,0.75,0.08,1.12,0.09c0.41,0.03,0.81,0.06,1.23,0.08c4.89,0.2,9.86-0.66,14.57-2.69c1.14-0.49,2.24-1.05,3.32-1.66 c0.36-0.2,0.7-0.41,1.06-0.63c0.12-0.08,0.25-0.16,0.36-0.23c0.31-0.2,0.64-0.41,0.95-0.63c1.04-0.7,2.04-1.46,2.99-2.27 c0.31-0.27,0.62-0.55,0.93-0.83c0.3-0.28,0.61-0.56,0.89-0.85c0.3-0.3,0.59-0.59,0.87-0.89c0.56-0.59,1.11-1.21,1.62-1.85 c0.53-0.63,1.03-1.28,1.46-1.96c0.12-0.16,0.23-0.31,0.33-0.47L1504.96,340.44z M1448.79,339.8c1.53,2.32,3.3,4.41,5.28,6.24 c10.22-4.24,27.76-12.35,37.99-21.78C1471.98,331.2,1465.16,333.18,1448.79,339.8z M1511.1,319.58 c-7.79,6.18-21.31,15.66-43.77,28.33c15.77-3.61,25.35-7.25,42.06-15.96c0-0.02,0.02-0.02,0.02-0.02v-0.05 c0.16-0.45,0.28-0.89,0.42-1.35c0.12-0.45,0.25-0.91,0.36-1.36c0.11-0.45,0.2-0.92,0.3-1.38c0.09-0.47,0.17-0.92,0.25-1.39 c0.14-0.92,0.25-1.85,0.33-2.79v-0.05c0.03-0.47,0.06-0.94,0.08-1.42c0.02-0.33,0.03-0.66,0.02-0.99 c0.02-0.53,0.02-1.08,0-1.61C1511.13,319.56,1511.12,319.58,1511.1,319.58z M1481,287.4c-0.3-0.05-0.59-0.08-0.89-0.09 c-0.64-0.08-1.28-0.11-1.92-0.13c-4.81-0.2-9.71,0.66-14.39,2.68c-0.83,0.36-1.64,0.74-2.41,1.17 c-0.37,0.2-0.75,0.39-1.12,0.61c-0.73,0.42-1.43,0.86-2.13,1.33c-0.36,0.23-0.7,0.47-1.03,0.72 c-0.03,0.02-0.06,0.03-0.08,0.06c-0.33,0.23-0.64,0.49-0.97,0.74c-1,0.77-1.92,1.58-2.79,2.47c-0.23,0.22-0.47,0.45-0.7,0.7 c-0.16,0.14-0.28,0.28-0.42,0.44c-0.19,0.22-0.37,0.42-0.58,0.64c-0.55,0.61-1.06,1.25-1.54,1.91 c-0.25,0.33-0.48,0.66-0.72,0.99c-0.23,0.34-0.47,0.67-0.69,1.02c-0.23,0.34-0.45,0.69-0.64,1.03 c-0.2,0.34-0.41,0.7-0.61,1.06c-0.39,0.7-0.75,1.44-1.09,2.18c-0.19,0.41-0.36,0.81-0.53,1.22c6.18-6.9,14.1-12.5,23.1-16.38 c4.42-1.91,8.94-3.29,13.49-4.18C1481.91,287.51,1481.46,287.45,1481,287.4z M1443.18,320.88c-0.02,2.69,0.28,5.41,0.95,8.12 c16.08-7.39,22.2-11,41.05-20.84C1471.27,309.12,1453.26,316.37,1443.18,320.88z M1491.38,290.3 c-17.73,6.17-26.89,10.63-40.3,19.59c24.5-7.62,40.61-10.94,50.44-12.39C1498.59,294.46,1495.13,292.05,1491.38,290.3z" style=""/>
      </g>
    </g>
    <g style="">
      <g>
        <path class="st5" d="M1594.14,326.35c-1.93-0.31-3.57-1.3-5.13-2.68c-1.68-1.49-2.37-4.09-2.37-6.7v-27.09 c0-1.46-1.63-2.69-3.09-2.69h-3.98c-1.46,0-2.64,1.19-2.64,2.64v27.09c0,5.19,1.85,9.68,5.51,13.35 c3.14,3.16,6.73,4.93,10.97,5.41c0.1,0.01,0.2,0.02,0.3,0.02c1.46,0,2.65-1.19,2.65-2.65v-4.08 C1596.36,327.65,1595.42,326.55,1594.14,326.35z"/>
      </g>
      <g>
        <path class="st5" d="M1751.85,326.35c-1.93-0.31-3.57-1.3-5.13-2.68c-1.68-1.49-2.37-4.09-2.37-6.7v-27.09 c0-1.46-1.63-2.69-3.09-2.69h-3.98c-1.46,0-2.64,1.19-2.64,2.64v27.09c0,5.19,1.85,9.68,5.51,13.35 c3.14,3.16,6.73,4.93,10.97,5.41c0.1,0.01,0.2,0.02,0.3,0.02c1.46,0,2.65-1.19,2.65-2.65v-4.08 C1754.07,327.65,1753.14,326.55,1751.85,326.35z"/>
      </g>
      <g>
        <g>
          <path class="st5" d="M1619.54,296.87c-5.33,0-9.95,1.91-13.72,5.69c-3.83,3.83-5.69,8.32-5.69,13.72 c0,5.4,1.86,9.89,5.69,13.72c3.83,3.83,8.32,5.69,13.72,5.69c5.4,0,9.89-1.86,13.72-5.69c3.77-3.77,5.69-8.39,5.69-13.72 c0-5.4-1.86-9.89-5.69-13.72C1629.43,298.73,1624.95,296.87,1619.54,296.87z M1626.48,323.22 c-1.92,1.92-4.25,2.89-6.94,2.89c-2.69,0-5.02-0.97-6.94-2.89c-1.92-1.91-2.89-4.25-2.89-6.94c0-2.73,0.97-5.08,2.89-7 c1.92-1.92,4.25-2.89,6.94-2.89c2.69,0,5.02,0.97,6.94,2.89c1.92,1.92,2.89,4.27,2.89,7 C1629.37,318.97,1628.4,321.3,1626.48,323.22z"/>
        </g>
      </g>
      <g>
        <g>
          <path class="st5" d="M1728.65,314.71c-0.04-0.47-0.09-0.93-0.14-1.38c-0.13-0.96-0.33-1.89-0.6-2.79 c-0.05-0.19-0.11-0.38-0.18-0.56c-0.12-0.36-0.26-0.72-0.4-1.08c-0.95-2.31-2.38-4.43-4.33-6.37 c-3.82-3.83-8.31-5.69-13.73-5.69c-1.93,0-3.78,0.26-5.56,0.77l-0.14,0.05c-1.25,0.36-2.46,0.83-3.61,1.4 c-0.01,0-0.02,0.01-0.02,0.01c-1.58,0.88-3.07,2-4.44,3.38c-3.81,3.81-5.7,8.39-5.7,13.75c0,1.71,0.19,3.35,0.58,4.9 c0.82,3.31,2.52,6.26,5.12,8.85c3.32,3.32,7.22,5.18,11.73,5.6c0.5,0.05,1.02,0.08,1.52,0.1c0.16,0.01,0.33,0.01,0.5,0.01 c0.3,0,0.59-0.01,0.88-0.02c0.19-0.01,0.38-0.02,0.57-0.03c0.24-0.02,0.47-0.04,0.71-0.06c0.23-0.03,0.47-0.05,0.71-0.09 c0.23-0.03,0.47-0.07,0.7-0.12c0.23-0.04,0.47-0.09,0.7-0.14c0.2-0.04,0.4-0.09,0.6-0.15c0.18-0.04,0.35-0.09,0.52-0.14 c0.24-0.06,0.48-0.14,0.71-0.22c0.23-0.08,0.47-0.16,0.7-0.25c0.29-0.11,0.57-0.23,0.86-0.35c0.23-0.1,0.46-0.21,0.69-0.32 c0.07-0.03,0.14-0.07,0.21-0.11c0.76-0.38,1.51-0.81,2.24-1.3v1.65c0,0.91,0.74,1.65,1.65,1.65h5.36 c0.91,0,1.65-0.74,1.65-1.65v-17.8C1728.69,315.7,1728.68,315.2,1728.65,314.71z M1702.37,323.07 c-1.92-1.92-2.86-4.17-2.86-6.87c0-2.74,0.94-5.01,2.86-6.94c1.92-1.92,4.17-2.86,6.87-2.86c2.69,0,4.94,0.94,6.87,2.86 c1.92,1.92,2.86,4.19,2.86,6.94c0,2.69-0.94,4.94-2.86,6.87c-1.92,1.92-4.17,2.86-6.87,2.86 C1706.54,325.93,1704.29,324.99,1702.37,323.07z"/>
        </g>
      </g>
      <g>
        <g>
          <path class="st5" d="M1683.28,311.45c-0.81-3.31-2.51-6.24-5.12-8.86c-3.59-3.59-7.76-5.44-12.71-5.66 c-0.33-0.02-0.66-0.02-1-0.02c-0.46,0-0.92,0.02-1.38,0.04c-0.2,0.01-0.39,0.03-0.59,0.05c-0.04,0.01-0.09,0.01-0.13,0.01 c-0.19,0.02-0.38,0.04-0.57,0.07c-0.15,0.02-0.29,0.04-0.44,0.06c-0.1,0.01-0.19,0.03-0.28,0.04 c-0.03,0-0.05,0.01-0.09,0.02c-0.37,0.06-0.73,0.13-1.09,0.22c-1.87,0.45-3.51,1.14-5.17,2.15v-9.69 c0-1.5-1.21-2.71-2.71-2.71l-4.28,0.02c-1.49,0-2.71,1.21-2.71,2.71v26.4c0,5.33,1.91,9.94,5.68,13.72 c3.59,3.58,7.76,5.44,12.72,5.66c0.35,0.01,0.7,0.02,1.05,0.02c0.26,0,0.52-0.01,0.76-0.02c0.14-0.01,0.29-0.01,0.43-0.02 c0.16-0.01,0.32-0.02,0.45-0.03c0.02,0,0.04,0,0.07-0.01c0.02,0,0.04,0,0.07-0.01c0.02,0,0.05-0.01,0.07-0.01 c0,0,0.01,0,0.01,0c0.02-0.01,0.04-0.01,0.06-0.01c0.02,0,0.03,0,0.04-0.01c0.04,0,0.08-0.01,0.12-0.01c0,0,0,0,0.01,0 c0.01,0,0.03,0,0.04-0.01c0.02,0,0.04,0,0.06-0.01c0.03-0.01,0.06-0.01,0.1-0.01c0.03-0.01,0.05-0.01,0.07-0.01 c0.08-0.01,0.16-0.02,0.23-0.03c0.08-0.01,0.15-0.02,0.23-0.03l0.52-0.08c0.55-0.08,1.08-0.2,1.61-0.32 c0.18-0.04,0.36-0.09,0.54-0.14c0.23-0.06,0.46-0.13,0.69-0.2c2.77-0.91,5.26-2.49,7.53-4.75 c3.77-3.77,5.68-8.39,5.68-13.71C1683.84,314.6,1683.65,312.98,1683.28,311.45z M1674.23,317.05 c-0.16,2.37-1.12,4.46-2.86,6.19c-1.08,1.08-2.28,1.86-3.62,2.33c-0.04,0.02-0.07,0.03-0.11,0.04 c-0.05,0.02-0.09,0.03-0.14,0.05c-0.1,0.03-0.2,0.06-0.3,0.09c-0.88,0.25-1.8,0.38-2.77,0.38c-0.04,0-0.08,0-0.12-0.01 c-0.15,0.01-0.29,0-0.44-0.01c-0.16-0.01-0.31-0.02-0.47-0.03c-2.32-0.2-4.33-1.16-5.99-2.84 c-1.89-1.92-2.86-4.24-2.86-6.94c0-2.68,0.97-5.02,2.86-6.94c0.38-0.38,0.78-0.73,1.2-1.03c0.13-0.1,0.26-0.19,0.39-0.28 c1.59-1.08,3.41-1.63,5.42-1.63c2.68,0,5.02,0.97,6.93,2.88c1.92,1.92,2.88,4.27,2.88,7 C1674.26,316.55,1674.25,316.8,1674.23,317.05z"/>
        </g>
      </g>
      <g>
        <g>
          <path class="st5" d="M1569.58,331.56c0.01-0.17,0-0.35,0-0.53l0-3.26v-30.66c0-0.13-0.11-0.24-0.24-0.24h-7.42 c-1.04,0-1.9,0.75-2.08,1.74c-0.02,0.12-0.04,0.25-0.04,0.38l0,0c0,0.19-0.2,0.3-0.36,0.21c-2.78-1.54-5.91-2.33-9.31-2.33 c-5.33,0-9.96,1.92-13.74,5.7c-3.83,3.83-5.69,8.32-5.69,13.73c0,3.1,0.66,6,1.96,8.59c0.19,0.38,0.39,0.75,0.61,1.12 c0.46,0.79,0.99,1.56,1.58,2.29c0.48,0.59,0.99,1.17,1.55,1.72c0.44,0.44,0.89,0.85,1.32,1.21c0.92,0.78,1.89,1.46,2.9,2.03 c0.58,0.33,1.18,0.64,1.8,0.9c2.37,1.03,4.96,1.55,7.72,1.55c2.66,0,5.27-0.55,7.69-1.59c0.64-0.28,1.27-0.59,1.87-0.93 c0.05-0.02,0.13-0.08,0.17-0.11v4.34c0,0.02,0,0.03,0,0.05c-0.19,1.09-0.6,2.13-1.16,3.08c-0.43,0.73-0.96,1.42-1.61,2.06 c-1.92,1.92-4.25,2.89-6.94,2.89s-5.02-0.97-6.94-2.89c-0.53-0.53-0.99-1.1-1.38-1.7c-0.15-0.23-0.41-0.37-0.69-0.37h-8.75 c-0.56,0-0.95,0.54-0.79,1.08c0.9,2.87,2.5,5.44,4.82,7.77c3.83,3.83,8.32,5.69,13.72,5.69s9.89-1.86,13.72-5.69 c2.57-2.57,4.28-5.53,5.11-8.85c0.34-1.36,0.55-2.78,0.59-4.25l0-4.29C1569.59,331.89,1569.59,331.71,1569.58,331.56z M1559.65,318.07c-0.03,0.19-0.07,0.37-0.11,0.55c-0.32,1.35-0.93,2.6-1.84,3.72c-0.15,0.19-0.32,0.38-0.49,0.56 c-0.07,0.07-0.14,0.15-0.22,0.23c-1.54,1.56-3.39,2.48-5.5,2.75c-0.44,0.06-0.89,0.09-1.35,0.09 c-0.46,0-0.91-0.03-1.34-0.08c-2.13-0.26-3.95-1.17-5.53-2.76c-0.06-0.06-0.12-0.12-0.18-0.18l-0.04-0.04 c-0.16-0.18-0.32-0.36-0.47-0.54c-0.91-1.11-1.52-2.34-1.85-3.69c-0.05-0.2-0.09-0.41-0.13-0.62 c-0.1-0.55-0.15-1.14-0.15-1.75c0-2.65,0.95-4.94,2.81-6.83c1.89-1.91,4.13-2.84,6.86-2.84c2.72,0,4.96,0.93,6.85,2.84 c1.87,1.89,2.81,4.19,2.81,6.83C1559.8,316.91,1559.75,317.5,1559.65,318.07z"/>
        </g>
      </g>
    </g>
  </g>
</svg>