<?xml version="1.0" encoding="UTF-8"?>
<svg id="Capa_2" data-name="Capa 2" xmlns="http://www.w3.org/2000/svg" xmlns:xlink="http://www.w3.org/1999/xlink" viewBox="0 0 352.44 275.62">
  <defs>
    <style>
      .cls-1 {
        fill: #fff;
      }

      .cls-2 {
        fill: url(#Degradado_sin_nombre_2);
      }

      .cls-3 {
        clip-path: url(#clippath);
      }

      .cls-4 {
        fill: none;
      }

      .cls-5 {
        fill: #e20020;
      }
    </style>
    <clipPath id="clippath">
      <path class="cls-4" d="m85.5,179.81c-7.89.88-1.75.29,0,0m138.2-12.26c-9.41.13-18.79.39-27.89.74-9.12.21-18.5.51-27.9.94-56.71,2.11-110.08,9.2-116.34,10.69.21-.04,30.18-4.49,63.87-7.25,27.95-2.52,58.05-3.67,69.82-3.94-4.58.2-9.05.42-13.42.65-12.47.58-29.85,1.54-47.13,2.95-5.95.48-11.87,1.01-17.57,1.59-.91.02-1.87.06-3.44.23h.91c-24.38,2.48-44.49,5.35-47.44,6.17.29-.05,40.97-4.33,63.97-6.61l-32.81,4.49c-11.45,1.44-18.98,2.52-21.72,3.15.66-.11,18.29-2.56,24.58-3.04l.14.04-8.61,1.2c3.26-.35,6.48-.7,9.73-1.04l.9.15c-2.94.41-5.79.83-7.86,1.15,2.08-.23,5.06-.84,9.28-1.23l3.87-.38c36.85-4.11,69.74-4.65,97.33-5.69,33.8-.25,78.54.2,104.36,3.14,0,0,.89-.61,1.25-1.18.76-1.14.8-2.31.19-3.54-.36-.72-1.11-1.43-1.41-1.52,0,0-.59-.2-.95-.22-2.41-.17-.81-.26-.81-.26-4.5-.23-6.39-.1-11.33-.3l.91-.06c-1.58-.08-2.55-.07-3.45-.04-5.75-.22-11.69-.4-17.67-.52-17.35-.37-34.76-.26-47.26-.09-4.35.03-8.85.09-13.43.16,8.51-.33,29.48-.76,29.08-.76-.15,0-3.44.07-11.73.22"/>
    </clipPath>
    <linearGradient id="Degradado_sin_nombre_2" data-name="Degradado sin nombre 2" x1="-1868.97" y1="536.04" x2="-1866.87" y2="536.04" gradientTransform="translate(223414.97 -63888.45) scale(119.51)" gradientUnits="userSpaceOnUse">
      <stop offset="0" stop-color="#e20020"/>
      <stop offset=".15" stop-color="#e73713"/>
      <stop offset=".33" stop-color="#ee7405"/>
      <stop offset=".42" stop-color="#f18c00"/>
      <stop offset=".55" stop-color="#f39a00"/>
      <stop offset=".81" stop-color="#f9bf00"/>
      <stop offset="1" stop-color="#ffde00"/>
    </linearGradient>
  </defs>
  <g id="Capa_1-2" data-name="Capa 1">
    <g>
      <path class="cls-5" d="m351.17,157.61c-3.68,26.91-16.7,48.57-37.67,62.66-24.77,16.65-59.34,22.27-102.73,16.72-37.89-4.86-63.29-.17-75.48,13.92-7.81,9.02-7.92,19.36-7.31,24.71C64.97,252.77-5.09,202.83.29,135.04c2.82-35.53,22.03-68.98,54.09-94.2C87.86,14.5,132.49,0,180.03,0c57.08,0,109.96,21.54,141.46,57.63,24.5,28.08,34.77,62.65,29.68,99.98Z"/>
      <g class="cls-3">
        <rect class="cls-2" x="51.57" y="167.32" width="250.82" height="14.02"/>
      </g>
      <path class="cls-1" d="m94.08,162.2c-2.38-4.81-8.16-18.61-13.26-30.78-1.62-3.88-3.19-7.63-4.59-10.93-.08-.21-.29-.35-.52-.35h-1.12c-.23,0-.44.14-.53.35-6.17,14.26-12.24,27.91-18.58,41.73-.09.19-.06.43.08.59.13.17.36.25.57.2.67-.15,1.39-.29,2.09-.29.59,0,1.23.11,2.06.29.04.01.09.02.13.02.25,0,.48-.17.55-.43.89-3.33,2.88-8.82,5.58-15.49,4.25-.12,9.66-.12,14.23,0,.44,1.08.9,2.2,1.38,3.34,1.82,4.43,3.71,9.01,4.58,12.16.08.28.35.46.64.41.96-.16,1.99-.3,3.06-.3.97,0,1.92.12,3.04.3.22.04.43-.05.56-.23.12-.17.15-.4.05-.59Zm-23.57-18.9c-.79-.02-1.59-.04-2.37-.06l5.63-13.06,5.71,13.08c-2.72.09-5.82.13-8.97.04Z"/>
      <path class="cls-1" d="m119.61,128.03c-.62.16-1.21.25-1.66.25-.5,0-1.05-.08-1.7-.25-.3-.08-.6.09-.69.38-1.97,6.21-7.06,19.73-10.56,27.73-3.51-8.48-7.75-19-10.66-27.74-.09-.27-.36-.43-.64-.38-1.96.35-2.98.34-4.91,0-.2-.03-.42.04-.55.21-.13.16-.16.39-.08.58,4.59,10.89,10.69,25.59,13.67,33.85.08.23.3.38.54.38.06,0,.12-.01.18-.03.43-.15,1.01-.24,1.46-.24.39,0,.84.08,1.46.25.29.08.59-.07.69-.35,4.13-10.89,8.88-22.27,14.11-33.85.09-.2.06-.43-.08-.6-.14-.17-.37-.25-.58-.19h0Z"/>
      <path class="cls-1" d="m269.17,162.08c-2.04-2.3-6.82-8.36-10.31-12.79-.98-1.24-1.85-2.34-2.5-3.17,3.94-.81,9.57-3.57,9.57-9.76,0-5.39-3.82-8.35-10.76-8.35-.95,0-1.91.07-2.84.13-2.5.18-4.86.15-8.3-.13-.15-.01-.32.07-.44.19-.12.11-.18.3-.17.47.18,4.15.37,8.45.37,12.63v8.42c0,4.19-.19,8.45-.37,12.56v.15c-.01.18.06.35.19.46.13.12.31.16.48.13,1.49-.28,3.24-.25,4.57,0,.17.04.35-.01.48-.13.13-.11.21-.28.2-.45l-.08-1.91c-.15-3.54-.3-7.21-.3-10.81v-2.98h1.06c4.19,4.3,10.5,13.06,12.46,16.03.13.19.34.3.57.25,2.18-.36,3.3-.36,5.61,0,.03,0,.06,0,.09,0,.2,0,.4-.11.5-.3.11-.21.09-.47-.08-.65Zm-20.21-18.47v-2.31c0-3.34.13-6.7.29-10.12,1.08-.11,2.36-.2,4.19-.2,2.63,0,7.02.76,7.02,5.85,0,6.6-7.32,6.94-8.78,6.94-.84,0-1.86-.02-2.72-.16Z"/>
      <path class="cls-1" d="m303.47,162.21c-1.9-3.85-6.27-14.28-10.5-24.36-1.51-3.59-2.98-7.07-4.26-10.1-.09-.21-.3-.35-.53-.35h-.92c-.23,0-.43.14-.52.35-4.5,10.41-9.38,21.36-15.36,34.47-.09.2-.06.44.08.6.14.17.37.25.58.2,1.03-.26,2.05-.33,3.35,0,.05,0,.09,0,.14,0,.25,0,.48-.17.55-.42.77-2.79,2.44-7.43,4.6-12.76h.62c3.59-.1,7.17-.08,10.65,0h.36c.35.87.73,1.77,1.11,2.68,1.51,3.68,3.08,7.48,3.79,10.08.08.29.36.47.66.41.89-.16,1.65-.26,2.49-.26s1.71.13,2.49.26c.22.04.43-.05.56-.22.13-.17.15-.4.06-.59Zm-12.86-15.71c-2.22.06-4.42.09-6.71.02-.61-.02-1.22-.04-1.81-.05l4.48-10.44,4.58,10.46h-.54Z"/>
      <path class="cls-1" d="m238.3,128.04c-1.1.38-2.04.26-3.17-.01-.18-.04-.38,0-.52.13-.14.13-.21.32-.18.51.29,1.89.29,6.56.29,15.87,0,6.24,0,15.66-10.18,15.66s-10.36-8.19-10.36-14.76c0-7.22.31-13.91.61-16.8.02-.18-.05-.37-.19-.49-.14-.12-.33-.17-.51-.13-.68.16-1.4.25-1.99.25-.71,0-1.65-.1-2.45-.26-.17-.03-.35.01-.48.13-.13.11-.21.28-.2.46l.03.8c.1,2.79.26,7,.26,11.9,0,1.15-.05,2.26-.11,3.42-.07,1.33-.13,2.7-.13,4.33,0,9.97,4.64,14.61,14.62,14.61,8.99,0,14.43-5.5,14.55-14.7.07-6.71.45-15.44.87-20.33.02-.19-.06-.38-.22-.5-.15-.12-.36-.15-.54-.09h0Z"/>
      <path class="cls-1" d="m206.19,130.18c0-.52.11-1.01.22-1.45.05-.18,0-.36-.1-.5-.11-.14-.28-.22-.47-.21-4.92.18-8.94.27-12.63.27s-7.7-.08-12.64-.27c-.16,0-.35.07-.47.22-.11.14-.15.33-.1.51.12.43.24.93.24,1.39,0,.42-.08.87-.24,1.38-.06.18-.02.39.11.54.12.15.31.23.51.2,2.57-.31,6.55-.53,9.87-.55.09,3.21.13,6.36.13,9.61v8.42c0,4.37-.2,8.85-.39,12.71,0,.17.06.34.2.46.11.09.24.14.38.14.04,0,.07,0,.11-.01,1.37-.26,3.22-.26,4.59,0,.17.03.35-.01.48-.13.13-.12.2-.28.2-.46-.18-3.92-.39-8.35-.39-12.71v-8.42c0-3.43.05-6.58.15-9.61,3.31.02,7.28.24,9.85.55.18.03.38-.05.5-.2.12-.15.17-.35.11-.53-.14-.49-.22-.95-.22-1.33h0Z"/>
      <path class="cls-1" d="m142.9,159.62c.04-.19-.01-.39-.14-.52-.14-.14-.34-.21-.52-.17-2.82.53-7.88.62-12.59.63-.03-1.11-.08-3.32-.08-6.8,0-3.96,0-5.45.04-6.55,2.62.01,8.17.14,11.31.46.18.02.36-.05.48-.18.12-.13.18-.31.14-.49-.09-.47-.13-.92-.13-1.38s.05-.95.13-1.4c.03-.18-.02-.36-.14-.49-.12-.13-.29-.19-.47-.19-2.55.21-5.71.47-11.3.49,0-.44-.01-.99-.02-1.59-.02-1.27-.04-2.82-.04-4.32,0-1.37.05-2.52.11-3.64.03-.66.06-1.32.08-2.01,4.51.01,7.01.22,9.64.43.85.07,1.72.14,2.68.21.18.01.35-.06.47-.2.12-.14.16-.32.13-.5-.09-.4-.13-.84-.13-1.35s.04-.96.13-1.37c.04-.17-.01-.35-.13-.49-.12-.13-.28-.23-.47-.2-3.45.18-6.14.27-8.73.27-3.24,0-6.37-.14-8.73-.27-.17-.03-.32.05-.43.17-.12.11-.17.27-.17.43.18,3.92.4,8.36.4,12.63v8.43c0,4.23-.2,8.55-.4,12.73v.04c0,.16.05.32.17.43.12.12.26.18.43.17,2.42-.13,5.61-.27,8.9-.27,2.6,0,5.39.09,8.8.27.01,0,.02,0,.03,0,.17,0,.33-.08.44-.2.12-.14.16-.32.12-.49-.08-.35-.12-.82-.12-1.32,0-.43.04-1.03.12-1.39h0Z"/>
      <path class="cls-1" d="m177.48,128.14c-.15-.12-.34-.16-.52-.11-.82.24-1.68.34-2.92,0-.18-.05-.37-.01-.51.1-.14.12-.22.29-.21.47.37,7.13.39,16.24.39,24.47-5.34-5.45-13.81-14.66-20.7-22.13l-3.1-3.37c-.11-.12-.26-.18-.42-.18h-.79c-.16,0-.31.07-.42.18-.11.12-.16.27-.15.43.13,2.19.13,7,.13,13.08,0,6.64-.64,19.09-1.02,21.27-.04.19.03.38.17.51.14.13.34.18.53.14,1.19-.29,2.03-.36,3.24,0,.18.05.38.01.53-.11.15-.13.22-.32.2-.51-.24-1.91-.42-12.11-.42-16.49,0-3.91.04-6.54.09-8.55l1.04,1.11c7.82,8.31,15.91,16.91,22.76,24.99.11.13.27.2.44.2h.7c.16,0,.3-.06.41-.17.11-.11.17-.26.16-.42-.06-2.15-.16-12.94-.16-18.04,0-3.9.48-13.52.78-16.39.02-.19-.06-.38-.2-.5h0Z"/>
      <path class="cls-1" d="m230.57,112.93c0-.42.09-.95.26-1.58.06-.21,0-.44-.14-.61s-.37-.25-.59-.22c-2.77.38-5.46.61-8,.69-2.29.03-4.67.07-7.16.07-.03-2.64-.06-5.61-.11-8.88-.04-3.55-.05-7.77-.05-12.59,0-2.59.04-5.02.11-7.42l.06-1.18c.1-2.08.19-4.18.28-6.32,0-.2-.08-.39-.22-.52-.15-.13-.35-.19-.54-.16l-.42.07c-.34.05-.69.1-.96.16-.88.07-1.83.05-2.57,0-.32-.06-.66-.11-.99-.16l-.46-.07c-.2-.03-.4.03-.55.16-.15.13-.23.32-.22.52l.29,7.49c.11,2.56.17,4.99.17,7.42v9.9c0,2.43-.06,4.88-.17,7.48h0s-.29,7.25-.29,7.25c0,.19.06.37.19.5.13.12.29.2.47.2h.03c1.82-.07,3.58-.12,5.26-.12h10.66c1.77,0,3.51.04,5.28.12.22,0,.42-.09.56-.26.13-.17.17-.4.1-.6-.17-.53-.26-.99-.26-1.32h0Z"/>
      <path class="cls-1" d="m203.69,112.93c0-.4.09-.93.27-1.58.06-.21,0-.44-.14-.61-.14-.17-.37-.25-.59-.22-2.78.38-5.47.61-7.98.69-2.3.03-4.69.07-7.19.07-.02-1.66-.04-3.46-.06-5.37l-.04-3.51c-.03-3.56-.07-7.77-.07-12.6,0-2.55.04-5.02.11-7.41l.35-7.49c.01-.2-.14-.38-.29-.51-.14-.13-.42-.19-.62-.15-.46.07-.9.13-1.24.2-.9.07-1.83.06-2.61.01-.32-.06-.66-.11-1.01-.17l-.44-.07c-.2-.03-.4.03-.55.16-.15.13-.23.33-.22.52.12,2.54.2,5.02.29,7.49.11,2.24.16,4.66.16,7.41v9.9c0,2.76-.05,5.2-.16,7.47h0c-.08,2.46-.17,4.88-.29,7.25,0,.19.06.37.19.5.13.13.3.2.47.2h.03c1.83-.07,3.61-.12,5.27-.12h10.68c1.75,0,3.5.04,5.27.12.21-.01.42-.09.56-.26.13-.17.17-.4.1-.61-.18-.55-.27-.99-.27-1.32h0Z"/>
      <path class="cls-1" d="m134.48,91.44c-.19-1.64-.38-3.29-.57-4.94-.16-1.47-.33-2.95-.51-4.43-.22-1.89-.44-3.79-.65-5.71-.36-3.45-.75-7.04-1.16-10.73-.04-.34-.32-.59-.66-.59h-.75c-.24,0-.47.13-.58.34-.83,1.51-1.71,3.12-2.63,4.82l-.49.9c-1.12,2.04-2.24,4.1-3.4,6.24l-.83,1.57c-.83,1.57-1.66,3.14-2.51,4.7-1.08,2.04-2.08,3.94-3.03,5.69-.91,1.63-1.69,3.11-2.39,4.43l-.17.32c-.42.77-.79,1.44-1.09,2.01-2.73-5.03-5.37-9.94-7.93-14.75-3.18-6.12-5.72-11.17-7.99-15.91-.11-.23-.34-.38-.6-.38h-1.01c-.34,0-.63.26-.66.6-.27,2.97-.63,6.16-1.08,9.74-.43,3.37-.89,6.8-1.38,10.29-.48,3.5-1.01,6.96-1.55,10.43-.29,1.89-.9,6.19-1.48,10.22-.48,3.4-.94,6.61-1.16,8.05-.03.21.04.41.18.56.14.15.34.22.56.2.55-.07,3.29-.07,3.87,0,.18.02.38-.04.52-.16.14-.13.22-.31.22-.5,0-.9.45-5.29.82-8.81.24-2.36.46-4.5.54-5.43.19-2.41.43-4.96.71-7.63.26-2.72.55-5.49.84-8.24.26-2.02.49-3.95.7-5.77,2.24,4.46,4.45,8.83,6.65,13.14,2.56,4.9,5,9.79,7.26,14.51.11.23.34.38.6.38h.51c.26,0,.5-.15.61-.39,2.3-5.17,4.73-10.21,7.24-14.96,2.29-4.25,4.59-8.52,6.94-12.82.53,4.47.97,8.77,1.31,12.81.19,2.08.58,5.73.99,9.63.53,5.03,1.14,10.73,1.37,13.64.01.18.1.35.25.46.14.11.33.17.51.14.46-.07,4.75-.07,5.21,0,.04,0,.07.01.11.01.17,0,.34-.07.46-.19.15-.15.22-.36.19-.57-.46-3.21-1.94-14.71-2.34-18.03-.19-1.62-.38-3.26-.56-4.9h0Z"/>
      <path class="cls-1" d="m178.17,114.13c-.49-.86-1.09-2.13-1.93-3.96-.77-1.78-1.66-3.78-2.66-5.99-.96-2.29-2-4.71-3.12-7.31l-3.33-7.9c-.53-1.28-1.07-2.55-1.6-3.81-.57-1.35-1.13-2.68-1.67-4.01-1.08-2.64-2.08-5.07-3.01-7.3-.11-.25-.35-.41-.62-.41h-1.09c-.26,0-.5.16-.61.4-2.98,6.87-5.98,13.7-8.93,20.29-3.35,7.52-6.33,14.08-9.1,20.05-.1.22-.08.47.06.67.15.19.38.3.62.27,1.35-.15,2.74-.15,4.12,0,.31.03.63-.17.72-.49.47-1.73,1.2-3.89,2.23-6.62.94-2.59,2-5.34,3.15-8.16,1.04-.04,2.08-.06,3.08-.06,2.36-.07,4.79-.07,7.31,0,1.12,0,2.2.02,3.29.06l1.47,3.65c.55,1.28,1.05,2.54,1.56,3.83l.11.3c.56,1.33,1.08,2.64,1.54,3.88.44,1.22.81,2.28,1.08,3.14.08.28.34.47.63.47.03,0,.06,0,.09-.01.51-.06.99-.1,1.41-.1h3.06c.47,0,.98.04,1.48.1.24.04.5-.07.64-.28.14-.21.15-.48.02-.7Zm-19.89-18.15c-.98,0-2.02,0-3.11-.06l-1.36-.02c-.25,0-.5-.01-.75-.01l5.27-12.32,5.42,12.34-5.47.07Z"/>
    </g>
  </g>
</svg>